<svg width="54" height="54" viewBox="0 0 54 54" fill="none" xmlns="http://www.w3.org/2000/svg">
<g clip-path="url(#clip0_98_1746)">
<path d="M47.5706 46.2881H45.0056V54H47.5706V46.2881Z" fill="#000001"/>
<path d="M45.0057 43.7231H42.4238V46.2881H45.0057V43.7231Z" fill="#000001"/>
<path d="M42.4239 46.2881H39.8589V48.8531H42.4239V46.2881Z" fill="#000001"/>
<path d="M42.4239 41.1411H39.8589V43.723H42.4239V41.1411Z" fill="#000001"/>
<path d="M39.8587 48.853H37.2769V51.4349H39.8587V48.853Z" fill="#000001"/>
<path d="M39.8588 38.5762H34.7119V41.1412H39.8588V38.5762Z" fill="#000001"/>
<path d="M39.8587 18.0059H37.2769V25.7177H39.8587V18.0059Z" fill="#000001"/>
<path d="M37.2769 51.4351H34.7119V54.0001H37.2769V51.4351Z" fill="#000001"/>
<path d="M37.2769 25.7173H34.7119V28.2823H37.2769V25.7173Z" fill="#000001"/>
<path d="M37.277 15.4238H32.147V18.0057H37.277V15.4238Z" fill="#000001"/>
<path d="M34.712 41.1411H32.147V43.723H34.712V41.1411Z" fill="#000001"/>
<path d="M34.7121 35.9941H29.5652V38.576H34.7121V35.9941Z" fill="#000001"/>
<path d="M34.712 28.2827H32.147V30.8646H34.712V28.2827Z" fill="#000001"/>
<path d="M32.1471 43.7231H29.5652V46.2881H32.1471V43.7231Z" fill="#000001"/>
<path d="M32.1471 30.8643H29.5652V33.4293H32.1471V30.8643Z" fill="#000001"/>
<path d="M32.1471 18.0059H29.5652V20.5709H32.1471V18.0059Z" fill="#000001"/>
<path d="M29.565 46.2881H27V48.8531H29.565V46.2881Z" fill="#000001"/>
<path d="M29.565 33.4292H27V35.9942H29.565V33.4292Z" fill="#000001"/>
<path d="M29.565 20.5708H27V23.1358H29.565V20.5708Z" fill="#000001"/>
<path d="M27.0001 35.9941H24.4351V38.576H27.0001V35.9941Z" fill="#000001"/>
<path d="M27.0001 23.1357H24.4351V25.7176H27.0001V23.1357Z" fill="#000001"/>
<path d="M24.4351 38.5762H21.8533V41.1412H24.4351V38.5762Z" fill="#000001"/>
<path d="M24.4351 25.7173H21.8533V28.2823H24.4351V25.7173Z" fill="#000001"/>
<path d="M21.8531 28.2827H19.2881V30.8646H21.8531V28.2827Z" fill="#000001"/>
<path d="M21.8531 20.5708H19.2881V25.7177H21.8531V20.5708Z" fill="#000001"/>
<path d="M19.2882 30.8643H16.7063V33.4293H19.2882V30.8643Z" fill="#000001"/>
<path d="M16.7064 0V2.565H14.1414V7.71188H16.7064V10.2937H19.2882V12.8587H21.8532V15.4238H24.4351V12.8587H27.0001V10.2937H29.5651V7.71188H32.147V2.565H29.5651V0H24.4351V2.565H21.8532V0H16.7064Z" fill="#000001"/>
<path d="M19.2883 18.0059H11.5764V20.5709H19.2883V18.0059Z" fill="#000001"/>
<path d="M14.1414 28.2827H11.5764V38.5765H14.1414V35.9946H16.7064V33.4296H14.1414V28.2827Z" fill="#000001"/>
<path d="M11.5763 38.5762H8.99438V41.1412H11.5763V38.5762Z" fill="#000001"/>
<path d="M11.5763 20.5708H8.99438V28.2827H11.5763V20.5708Z" fill="#000001"/>
<path d="M8.99444 41.1411H6.42944V53.9999H8.99444V41.1411Z" fill="#000001"/>
</g>
<defs>
<clipPath id="clip0_98_1746">
<rect width="54" height="54" fill="white"/>
</clipPath>
</defs>
</svg>
