<svg width="54" height="54" viewBox="0 0 54 54" fill="none" xmlns="http://www.w3.org/2000/svg">
<g clip-path="url(#clip0_98_1828)">
<path d="M21.8615 0V2.565H16.7146V5.14687H21.8615V7.71188H24.4265V5.14687H29.5733V7.71188H32.1384V5.14687H37.2852V7.71188H39.8671V5.14687H42.4321V10.2937H44.9971V7.71188H47.579V51.435H19.2965V54H50.144V51.435H52.709V7.71188H50.144V5.14687H47.579V2.565H39.8671V0H37.2852V2.565H32.1384V0H29.5733V2.565H24.4265V0H21.8615Z" fill="#000001"/>
<path d="M42.4322 10.2939H39.8672V15.4239H42.4322V10.2939Z" fill="#000001"/>
<path d="M37.2853 20.5707H44.9972V18.0057H39.8672V15.4238H37.2853V20.5707Z" fill="#000001"/>
<path d="M34.7203 25.7177H32.1384V30.8646H34.7203V28.2827H44.9972V25.7177H37.2853V20.5708H34.7203V25.7177Z" fill="#000001"/>
<path d="M29.5734 35.9943H44.9971V33.4293H32.1384V30.8643H29.5734V35.9943Z" fill="#000001"/>
<path d="M29.5734 20.5708H27.0084V23.1527H29.5734V20.5708Z" fill="#000001"/>
<path d="M29.5734 15.4238H27.0084V18.0057H29.5734V15.4238Z" fill="#000001"/>
<path d="M44.9972 41.1411H21.8616V43.723H44.9972V41.1411Z" fill="#000001"/>
<path d="M27.0084 23.1523H19.2965V25.7173H27.0084V23.1523Z" fill="#000001"/>
<path d="M21.8615 15.4238H19.2965V18.0057H21.8615V15.4238Z" fill="#000001"/>
<path d="M19.2965 38.576H29.5733V35.9941H3.85583V38.576H16.7146V51.4348H19.2965V38.576Z" fill="#000001"/>
<path d="M19.2965 20.5708H16.7146V23.1527H19.2965V20.5708Z" fill="#000001"/>
<path d="M16.7147 5.14697H14.1497V10.2938H16.7147V5.14697Z" fill="#000001"/>
<path d="M14.1496 10.2939H11.5677V15.4239H14.1496V10.2939Z" fill="#000001"/>
<path d="M11.5678 15.4238H9.00281V20.5707H11.5678V15.4238Z" fill="#000001"/>
<path d="M9.00274 20.5708H6.43774V25.7177H9.00274V20.5708Z" fill="#000001"/>
<path d="M6.43771 25.7173H3.85583V30.8642H6.43771V25.7173Z" fill="#000001"/>
<path d="M3.85589 30.8643H1.29089V35.9943H3.85589V30.8643Z" fill="#000001"/>
</g>
<defs>
<clipPath id="clip0_98_1828">
<rect width="54" height="54" fill="white"/>
</clipPath>
</defs>
</svg>
