<svg width="125" height="192" viewBox="0 0 125 192" fill="none" xmlns="http://www.w3.org/2000/svg">
<path d="M104.458 161.51C104.715 161.51 104.98 161.575 105.178 161.772C105.375 161.97 105.44 162.235 105.44 162.492V174.411H120.015V162.492C120.015 162.235 120.08 161.97 120.277 161.772C120.475 161.575 120.74 161.51 120.997 161.51H123.027C123.285 161.51 123.55 161.575 123.748 161.772C123.945 161.97 124.01 162.235 124.01 162.492V190.325C124.01 190.583 123.946 190.848 123.748 191.046C123.55 191.244 123.285 191.308 123.027 191.308H120.997C120.74 191.308 120.475 191.243 120.277 191.046C120.08 190.848 120.015 190.583 120.015 190.325V178.406H105.44V190.325C105.44 190.583 105.375 190.848 105.178 191.046C104.98 191.243 104.715 191.308 104.458 191.308H102.47C102.212 191.308 101.948 191.243 101.75 191.046C101.552 190.848 101.487 190.583 101.487 190.325V162.492C101.487 162.235 101.552 161.97 101.75 161.772C101.948 161.575 102.212 161.51 102.47 161.51H104.458Z" fill="black" stroke="black" stroke-width="0.78029"/>
<path d="M92.1802 161.51C93.0798 161.51 93.9256 161.691 94.7124 162.054H94.7114C95.4134 162.342 96.0299 162.733 96.5562 163.229L96.9839 163.657C97.4839 164.184 97.8899 164.8 98.2026 165.502L98.3296 165.8C98.6073 166.501 98.7456 167.247 98.7456 168.034V170.021C98.7456 170.279 98.6815 170.545 98.4839 170.742C98.2862 170.94 98.0207 171.004 97.7632 171.004H95.7329C95.4755 171.004 95.2108 170.94 95.0132 170.742C94.8155 170.545 94.7505 170.279 94.7505 170.021V168.034C94.723 167.318 94.466 166.726 93.9771 166.237C93.4883 165.749 92.8973 165.505 92.1802 165.505H82.7476C82.036 165.505 81.4287 165.758 80.9077 166.279C80.4191 166.768 80.1763 167.359 80.1763 168.076V184.742C80.1763 185.456 80.4177 186.062 80.9077 186.58C81.426 187.071 82.0328 187.312 82.7476 187.312H92.1802C92.9023 187.312 93.494 187.08 93.981 186.618C94.4671 186.13 94.7231 185.54 94.7505 184.826V182.796C94.7506 182.545 94.8526 182.328 95.019 182.155C95.199 181.939 95.4438 181.814 95.7329 181.813H97.7632C98.045 181.813 98.2838 181.934 98.4624 182.14L98.5249 182.208C98.663 182.372 98.7455 182.57 98.7456 182.796V184.826C98.7456 185.726 98.5658 186.572 98.2026 187.359C97.8452 188.134 97.3669 188.82 96.77 189.417C96.1973 189.99 95.5081 190.453 94.7075 190.809L94.7007 190.812C93.9165 191.143 93.075 191.308 92.1802 191.308H82.7476C81.8526 191.308 80.9985 191.143 80.189 190.813L80.1812 190.811L80.1724 190.807C79.402 190.451 78.7176 189.99 78.1216 189.424L78.1079 189.41C77.5393 188.812 77.0774 188.111 76.7222 187.312L76.7173 187.301C76.3875 186.491 76.2232 185.637 76.2231 184.742V168.076C76.2231 167.181 76.3885 166.34 76.7202 165.556L76.7222 165.549C77.0774 164.75 77.5393 164.049 78.1079 163.45L78.1147 163.443L78.3433 163.225C78.8877 162.729 79.502 162.337 80.1841 162.049C80.9943 161.69 81.8502 161.51 82.7476 161.51H92.1802Z" fill="black" stroke="black" stroke-width="0.78029"/>
<path d="M72.4995 161.51C72.757 161.51 73.0225 161.575 73.2202 161.772C73.4177 161.97 73.4819 162.235 73.4819 162.492V164.523C73.4819 164.781 73.4177 165.046 73.2202 165.243C73.0225 165.441 72.757 165.505 72.4995 165.505H64.2183V190.325C64.2183 190.607 64.099 190.846 63.8931 191.024L63.8247 191.087C63.661 191.225 63.4619 191.308 63.2358 191.308H61.2056C60.9482 191.308 60.6834 191.243 60.4858 191.046C60.2882 190.848 60.2231 190.583 60.2231 190.325V165.505H51.9419C51.6845 165.505 51.4197 165.441 51.2222 165.243C51.0246 165.046 50.9596 164.781 50.9595 164.523V162.492C50.9595 162.235 51.0246 161.97 51.2222 161.772C51.4197 161.575 51.6845 161.51 51.9419 161.51H72.4995Z" fill="black" stroke="black" stroke-width="0.78029"/>
<path d="M41.9902 161.51C42.254 161.51 42.4941 161.601 42.6992 161.765L42.6982 161.766C42.899 161.905 43.0662 162.08 43.1562 162.306L49.0361 177.025C49.1062 177.201 49.152 177.409 49.1826 177.641C49.2418 177.881 49.2754 178.106 49.2754 178.312V190.325C49.2754 190.583 49.2113 190.848 49.0137 191.046C48.816 191.244 48.5505 191.308 48.293 191.308H46.3057C46.0482 191.308 45.7826 191.244 45.585 191.046C45.3873 190.848 45.3232 190.583 45.3232 190.325V182.891H30.748V190.325C30.748 190.583 30.684 190.848 30.4863 191.046C30.2887 191.244 30.0231 191.308 29.7656 191.308H27.7354C27.478 191.308 27.2132 191.243 27.0156 191.046C26.818 190.848 26.7529 190.583 26.7529 190.325V178.312C26.7529 178.123 26.7693 177.908 26.7988 177.672L26.8018 177.648L26.8076 177.626C26.8663 177.391 26.9277 177.189 26.9932 177.025L32.8721 162.306C32.9662 162.07 33.1435 161.887 33.3564 161.745C33.5627 161.608 33.7931 161.51 34.0381 161.51H41.9902ZM30.748 178.39V178.938H45.3232V178.39L40.1621 165.505H35.9092L30.748 178.39Z" fill="black" stroke="black" stroke-width="0.78029"/>
<path d="M16.3887 161.51C17.2883 161.51 18.1341 161.691 18.9209 162.054H18.9199C19.6219 162.342 20.2384 162.733 20.7646 163.229L21.1924 163.657C21.6924 164.184 22.0984 164.8 22.4111 165.502L22.5381 165.8C22.8158 166.501 22.9541 167.247 22.9541 168.034V170.021C22.9541 170.279 22.89 170.545 22.6924 170.742C22.4947 170.94 22.2292 171.004 21.9717 171.004H19.9414C19.684 171.004 19.4193 170.94 19.2217 170.742C19.024 170.545 18.959 170.279 18.959 170.021V168.034C18.9315 167.318 18.6745 166.726 18.1855 166.237C17.6968 165.749 17.1058 165.505 16.3887 165.505H6.95605C6.2445 165.505 5.63721 165.758 5.11621 166.279C4.62755 166.768 4.38477 167.359 4.38477 168.076V184.742C4.3848 185.456 4.62622 186.062 5.11621 186.58C5.6345 187.071 6.24128 187.312 6.95605 187.312H16.3887C17.1108 187.312 17.7025 187.08 18.1895 186.618C18.6756 186.13 18.9316 185.54 18.959 184.826V182.796C18.9591 182.545 19.0611 182.328 19.2275 182.155C19.4074 181.939 19.6522 181.814 19.9414 181.813H21.9717C22.2535 181.813 22.4923 181.934 22.6709 182.14L22.7334 182.208C22.8715 182.372 22.954 182.57 22.9541 182.796V184.826C22.9541 185.726 22.7743 186.572 22.4111 187.359C22.0537 188.134 21.5754 188.82 20.9785 189.417C20.4058 189.99 19.7166 190.453 18.916 190.809L18.9092 190.812C18.125 191.143 17.2835 191.308 16.3887 191.308H6.95605C6.06109 191.308 5.20695 191.143 4.39746 190.813L4.38965 190.811L4.38086 190.807C3.61052 190.451 2.92611 189.99 2.33008 189.424L2.31641 189.41C1.74783 188.812 1.28585 188.111 0.930664 187.312L0.925781 187.301C0.596004 186.491 0.431657 185.637 0.431641 184.742V168.076C0.431641 167.181 0.596946 166.34 0.928711 165.556L0.930664 165.549C1.28585 164.75 1.74783 164.049 2.31641 163.45L2.32324 163.443L2.55176 163.225C3.09618 162.729 3.71049 162.337 4.39258 162.049C5.20276 161.69 6.05868 161.51 6.95605 161.51H16.3887Z" fill="black" stroke="black" stroke-width="0.78029"/>
<path d="M100.978 124.136C101.271 124.136 101.519 124.266 101.699 124.488C101.861 124.659 101.96 124.872 101.96 125.119V130.534C101.96 130.602 101.982 130.716 102.056 130.887C102.126 131.05 102.203 131.182 102.285 131.289L109.268 138.108L116.229 131.27C116.32 131.178 116.385 131.068 116.423 130.934L116.43 130.91L116.44 130.887C116.513 130.716 116.535 130.602 116.535 130.534V125.119C116.535 124.872 116.634 124.659 116.795 124.488C116.976 124.266 117.223 124.136 117.517 124.136H119.548C119.841 124.136 120.088 124.266 120.269 124.488C120.43 124.659 120.53 124.872 120.53 125.119V131.802C120.53 132.036 120.471 132.273 120.371 132.506L120.367 132.516L120.362 132.527C120.265 132.719 120.152 132.898 120.022 133.061L120.008 133.079L119.992 133.094L111.267 141.777V152.952C111.267 153.233 111.147 153.472 110.941 153.651C110.765 153.826 110.543 153.934 110.284 153.934H108.254C107.997 153.934 107.731 153.87 107.533 153.672C107.336 153.475 107.272 153.209 107.272 152.952V141.779L98.5041 133.095L98.4885 133.079L98.4738 133.061C98.3432 132.898 98.2302 132.719 98.134 132.527L98.1281 132.516L98.1242 132.506C98.0242 132.273 97.965 132.036 97.965 131.802V125.119C97.9651 124.86 98.0738 124.638 98.2492 124.462C98.4326 124.279 98.6667 124.136 98.9474 124.136H100.978Z" fill="black" stroke="black" stroke-width="0.78029"/>
<path d="M80.3374 124.136C80.5948 124.136 80.8596 124.201 81.0571 124.399C81.2547 124.596 81.3188 124.861 81.3188 125.119V149.939H97.4683C97.7501 149.939 97.9889 150.059 98.1675 150.265L98.23 150.333C98.3679 150.497 98.4506 150.696 98.4507 150.921V152.952C98.4507 153.209 98.3857 153.475 98.188 153.672C97.9904 153.87 97.7257 153.934 97.4683 153.934H78.3062C78.0544 153.934 77.8305 153.831 77.6401 153.679L77.6226 153.667L77.6079 153.651C77.4172 153.46 77.3237 153.217 77.3237 152.952V125.119C77.3238 124.853 77.4173 124.611 77.6079 124.42L77.6226 124.405L77.6401 124.391C77.8304 124.239 78.0546 124.136 78.3062 124.136H80.3374Z" fill="black" stroke="black" stroke-width="0.78029"/>
<path d="M71.9082 124.136C72.1656 124.136 72.4303 124.201 72.6279 124.399C72.8255 124.596 72.8906 124.861 72.8906 125.119V127.15C72.8905 127.407 72.8255 127.672 72.6279 127.87C72.4303 128.067 72.1656 128.131 71.9082 128.131H64.2188V149.939H71.9082C72.2012 149.939 72.4484 150.068 72.6289 150.29C72.7908 150.461 72.8906 150.675 72.8906 150.921V152.952C72.8906 153.209 72.8256 153.475 72.6279 153.672C72.4303 153.87 72.1656 153.934 71.9082 153.934H52.4922C52.2348 153.934 51.97 153.87 51.7725 153.672C51.5748 153.475 51.5098 153.209 51.5098 152.952V150.921C51.5098 150.675 51.6097 150.461 51.7715 150.29C51.952 150.068 52.1992 149.939 52.4922 149.939H60.2236V128.131H52.4922C52.2348 128.131 51.97 128.067 51.7725 127.87C51.5749 127.672 51.5098 127.407 51.5098 127.15V125.119C51.5098 124.861 51.5749 124.596 51.7725 124.399C51.97 124.201 52.2348 124.136 52.4922 124.136H71.9082Z" fill="black" stroke="black" stroke-width="0.78029"/>
<path d="M41.8276 124.136C42.0914 124.136 42.3315 124.227 42.5366 124.391L42.5356 124.392C42.7364 124.531 42.9036 124.707 42.9937 124.932L48.8735 139.652C48.9437 139.827 48.9894 140.036 49.02 140.267C49.0792 140.507 49.1128 140.733 49.1128 140.939V152.952C49.1128 153.209 49.0487 153.475 48.8511 153.672C48.6534 153.87 48.3879 153.934 48.1304 153.934H46.1421C45.8847 153.934 45.6199 153.87 45.4224 153.672C45.2247 153.475 45.1606 153.209 45.1606 152.952V145.517H30.5854V152.952C30.5854 153.209 30.5214 153.475 30.3237 153.672C30.1262 153.87 29.8614 153.934 29.604 153.934H27.5728C27.3154 153.934 27.0506 153.87 26.853 153.672C26.6554 153.475 26.5903 153.209 26.5903 152.952V140.939C26.5903 140.749 26.6067 140.535 26.6362 140.298L26.6392 140.275L26.645 140.252C26.7037 140.018 26.7652 139.815 26.8306 139.652L32.7095 124.932C32.8036 124.697 32.9809 124.514 33.1938 124.372C33.4001 124.234 33.6305 124.136 33.8755 124.136H41.8276ZM30.5854 141.016V141.564H45.1606V141.016L39.9995 128.131H35.7466L30.5854 141.016Z" fill="black" stroke="black" stroke-width="0.78029"/>
<path d="M16.3887 124.136C17.2883 124.136 18.134 124.317 18.9209 124.68H18.9199C19.7215 125.009 20.4234 125.472 21.0215 126.07C21.6193 126.668 22.0823 127.369 22.4111 128.17L22.5391 128.468C22.8168 129.17 22.9551 129.915 22.9551 130.703V147.369C22.9551 148.264 22.7746 149.118 22.417 149.926L22.418 149.927C22.0888 150.735 21.6232 151.442 21.0215 152.043L21.0146 152.05C20.4162 152.619 19.7151 153.08 18.916 153.435L18.9092 153.438C18.125 153.77 17.2835 153.934 16.3887 153.934H1.37207C1.12033 153.934 0.896425 153.831 0.706055 153.679L0.688477 153.667L0.673828 153.651C0.483082 153.46 0.389648 153.217 0.389648 152.952V125.119C0.389759 124.86 0.498427 124.638 0.673828 124.462C0.85724 124.279 1.09136 124.136 1.37207 124.136H16.3887ZM4.38477 149.939H16.3887C17.1059 149.939 17.6968 149.696 18.1855 149.208C18.7065 148.687 18.9599 148.08 18.96 147.369V130.703C18.96 129.992 18.7072 129.403 18.1924 128.913L18.1787 128.899C17.6884 128.384 17.0996 128.131 16.3887 128.131H4.38477V149.939Z" fill="black" stroke="black" stroke-width="0.78029"/>
<path d="M39.3931 100.329C39.5261 100.329 39.6577 100.362 39.7544 100.459C39.851 100.556 39.8842 100.687 39.8843 100.819V101.916C39.8843 102.049 39.8511 102.181 39.7544 102.277C39.6577 102.374 39.526 102.407 39.3931 102.407H30.314V107.296H38.1597C38.2949 107.296 38.4036 107.364 38.4858 107.46C38.5828 107.542 38.6509 107.651 38.6509 107.787V108.883C38.6509 109.024 38.5904 109.142 38.4858 109.231L38.4868 109.232C38.3984 109.321 38.2873 109.374 38.1597 109.374H30.314V114.263H39.3931C39.5336 114.263 39.6521 114.323 39.7417 114.427H39.7427C39.8311 114.515 39.8843 114.626 39.8843 114.754V115.85C39.8843 115.983 39.8511 116.114 39.7544 116.211C39.6577 116.308 39.5261 116.341 39.3931 116.341H28.7485C28.6157 116.341 28.4848 116.308 28.3882 116.211C28.2914 116.114 28.2583 115.983 28.2583 115.85V100.819C28.2584 100.687 28.2916 100.556 28.3882 100.459C28.4848 100.362 28.6157 100.329 28.7485 100.329H39.3931Z" fill="black" stroke="black" stroke-width="0.342445"/>
<path d="M15.8594 100.329C15.9922 100.329 16.123 100.362 16.2197 100.459C16.3164 100.556 16.3505 100.687 16.3506 100.819V107.296H24.2998V100.819C24.2999 100.687 24.3331 100.556 24.4297 100.459C24.5264 100.362 24.658 100.329 24.791 100.329H25.8867C26.0197 100.329 26.1513 100.362 26.248 100.459C26.3446 100.556 26.3779 100.687 26.3779 100.819V115.85C26.3779 115.983 26.3447 116.114 26.248 116.211C26.1513 116.308 26.0197 116.341 25.8867 116.341H24.791C24.658 116.341 24.5264 116.308 24.4297 116.211C24.333 116.114 24.2998 115.983 24.2998 115.85V109.374H16.3506V115.85C16.3506 115.983 16.3165 116.114 16.2197 116.211C16.123 116.308 15.9922 116.341 15.8594 116.341H14.7852C14.6523 116.341 14.5214 116.308 14.4248 116.211C14.3281 116.114 14.2949 115.983 14.2949 115.85V100.819C14.295 100.687 14.3282 100.556 14.4248 100.459C14.5214 100.362 14.6523 100.329 14.7852 100.329H15.8594Z" fill="black" stroke="black" stroke-width="0.342445"/>
<path d="M12.2432 100.329C12.3762 100.329 12.5078 100.362 12.6045 100.459C12.701 100.556 12.7343 100.687 12.7344 100.819V101.916C12.7344 102.049 12.7012 102.181 12.6045 102.277C12.5078 102.374 12.3761 102.407 12.2432 102.407H7.73242V115.85C7.73242 115.99 7.671 116.109 7.56641 116.198L7.56738 116.199C7.56577 116.201 7.56315 116.202 7.56152 116.203C7.55856 116.206 7.55675 116.209 7.55371 116.212L7.55273 116.211C7.46669 116.292 7.36242 116.341 7.24121 116.341H6.14453C6.01155 116.341 5.87993 116.308 5.7832 116.211C5.68666 116.114 5.65332 115.982 5.65332 115.85V102.407H1.1416C1.00884 102.407 0.877859 102.374 0.78125 102.277C0.684515 102.181 0.651367 102.049 0.651367 101.916V100.819C0.651444 100.687 0.684626 100.556 0.78125 100.459C0.877874 100.362 1.00877 100.329 1.1416 100.329H12.2432Z" fill="black" stroke="black" stroke-width="0.342445"/>
<path d="M29.3557 65.5C29.3557 64.9477 29.8034 64.5 30.3557 64.5H34.3557V69.5H29.3557V65.5Z" fill="black"/>
<rect width="5" height="5" transform="matrix(-1 0 0 1 93.3557 66)" fill="black"/>
<path d="M93.3557 63.5H89.3557C88.8034 63.5 88.3557 63.9477 88.3557 64.5V68.5H93.3557V63.5Z" fill="black"/>
<path d="M98.3557 62C98.3557 61.4477 97.9079 61 97.3557 61H94.3557C93.8034 61 93.3557 61.4477 93.3557 62V66H98.3557V62Z" fill="black"/>
<path d="M29.3557 69.5H34.3557V74.5H30.3557C29.8034 74.5 29.3557 74.0523 29.3557 73.5V69.5Z" fill="black"/>
<rect width="5" height="5" transform="matrix(-1 0 0 1 88.3557 66)" fill="black"/>
<rect width="5" height="5" transform="matrix(-1 0 0 1 88.3557 71)" fill="black"/>
<rect width="5" height="5" transform="matrix(-1 0 0 1 93.3557 71)" fill="black"/>
<rect width="5" height="5" transform="matrix(-1 0 0 1 93.3557 68.5)" fill="black"/>
<rect width="5" height="5" transform="matrix(-1 0 0 1 98.3557 66)" fill="black"/>
<path d="M93.3557 73.5H88.3557V77.5C88.3557 78.0523 88.8034 78.5 89.3557 78.5H93.3557V73.5Z" fill="black"/>
<rect width="5" height="5" transform="matrix(-1 0 0 1 98.3557 71)" fill="black"/>
<path d="M98.3557 76H93.3557V80C93.3557 80.5523 93.8034 81 94.3557 81H97.3557C97.9079 81 98.3557 80.5523 98.3557 80V76Z" fill="black"/>
<path d="M34.3557 63C34.3557 62.4477 34.8034 62 35.3557 62H39.3557V67H34.3557V63Z" fill="black"/>
<rect width="5" height="5" transform="matrix(-1 0 0 1 83.3557 63)" fill="black"/>
<rect x="34.3557" y="67" width="5" height="5" fill="black"/>
<rect width="5" height="5" transform="matrix(-1 0 0 1 83.3557 68)" fill="black"/>
<path d="M34.3557 72H39.3557V77H35.3557C34.8034 77 34.3557 76.5523 34.3557 76V72Z" fill="black"/>
<rect width="5" height="5" transform="matrix(-1 0 0 1 83.3557 73)" fill="black"/>
<path d="M39.3557 74.5H44.3557V79.5H40.3557C39.8034 79.5 39.3557 79.0523 39.3557 78.5V74.5Z" fill="black"/>
<rect width="5" height="5" transform="matrix(-1 0 0 1 78.3557 73.5)" fill="black"/>
<rect x="39.3557" y="69.5" width="5" height="5" fill="black"/>
<rect width="5" height="5" transform="matrix(-1 0 0 1 78.3557 68.5)" fill="black"/>
<rect x="39.3557" y="64.5" width="5" height="5" fill="black"/>
<rect width="5" height="5" transform="matrix(-1 0 0 1 78.3557 63.5)" fill="black"/>
<path d="M39.3557 60.5C39.3557 59.9477 39.8034 59.5 40.3557 59.5H44.3557V64.5H39.3557V60.5Z" fill="black"/>
<path d="M44.3557 58C44.3557 57.4477 44.8034 57 45.3557 57H49.3557V62H44.3557V58Z" fill="black"/>
<rect width="5" height="5" transform="matrix(-1 0 0 1 73.3557 57)" fill="black"/>
<rect x="49.3557" y="57" width="5" height="5" fill="black"/>
<rect x="49.3557" y="53" width="5" height="5" fill="black"/>
<rect x="44.3557" y="62" width="5" height="5" fill="black"/>
<rect width="5" height="5" transform="matrix(-1 0 0 1 73.3557 62)" fill="black"/>
<rect x="49.3557" y="62" width="5" height="5" fill="black"/>
<rect x="44.3557" y="67" width="5" height="5" fill="black"/>
<rect width="5" height="5" transform="matrix(-1 0 0 1 73.3557 67)" fill="black"/>
<rect x="49.3557" y="67" width="5" height="5" fill="black"/>
<rect x="44.3557" y="72" width="5" height="5" fill="black"/>
<rect width="5" height="5" transform="matrix(-1 0 0 1 73.3557 72)" fill="black"/>
<rect x="49.3557" y="72" width="5" height="5" fill="black"/>
<path d="M44.3557 77H49.3557V82H45.3557C44.8034 82 44.3557 81.5523 44.3557 81V77Z" fill="black"/>
<rect width="5" height="5" transform="matrix(-1 0 0 1 73.3557 77)" fill="black"/>
<rect x="49.3557" y="77" width="5" height="5" fill="black"/>
<rect x="49.3557" y="80" width="5" height="5" fill="black"/>
<rect x="49.3557" y="83" width="5" height="5" fill="black"/>
<rect x="49.3557" y="88" width="5" height="5" fill="black"/>
<rect x="49.3557" y="93" width="5" height="5" fill="black"/>
<rect x="49.3557" y="98" width="5" height="5" fill="black"/>
<path d="M49.3557 103H54.3557V108H50.3557C49.8034 108 49.3557 107.552 49.3557 107V103Z" fill="black"/>
<path d="M51.3557 108H56.3557V113H52.3557C51.8034 113 51.3557 112.552 51.3557 112V108Z" fill="black"/>
<path d="M51.3557 8H56.3557V3H52.3557C51.8034 3 51.3557 3.44772 51.3557 4V8Z" fill="black"/>
<rect width="5" height="5" transform="matrix(1 0 0 -1 51.3557 20.5)" fill="black"/>
<path d="M66.3557 20.5H71.3557V16.5C71.3557 15.9477 70.9079 15.5 70.3557 15.5H66.3557V20.5Z" fill="black"/>
<path d="M68.3557 25.5H73.3557V21.5C73.3557 20.9477 72.9079 20.5 72.3557 20.5H68.3557V25.5Z" fill="black"/>
<rect width="5" height="5" transform="matrix(1 0 0 -1 68.3557 30.5)" fill="black"/>
<rect width="5" height="5" transform="matrix(1 0 0 -1 68.3557 35.5)" fill="black"/>
<rect width="5" height="5" transform="matrix(1 0 0 -1 68.3557 40.5)" fill="black"/>
<rect width="5" height="5" transform="matrix(1 0 0 -1 68.3557 45.5)" fill="black"/>
<rect width="5" height="5" transform="matrix(1 0 0 -1 68.3557 50.5)" fill="black"/>
<rect width="5" height="5" transform="matrix(1 0 0 -1 68.3557 55.5)" fill="black"/>
<rect width="5" height="5" transform="matrix(1 0 0 -1 68.3557 60.5)" fill="black"/>
<path d="M58.3557 61H63.3557V57C63.3557 56.4477 62.9079 56 62.3557 56H58.3557V61Z" fill="black"/>
<rect width="5" height="5" transform="matrix(1 0 0 -1 68.3557 65.5)" fill="black"/>
<rect width="5" height="5" transform="matrix(1 0 0 -1 63.3557 63.5)" fill="black"/>
<rect width="5" height="5" transform="matrix(1 0 0 -1 58.3557 66)" fill="black"/>
<rect width="5" height="5" transform="matrix(1 0 0 -1 68.3557 70.5)" fill="black"/>
<rect width="5" height="5" transform="matrix(1 0 0 -1 63.3557 68.5)" fill="black"/>
<rect width="5" height="5" transform="matrix(1 0 0 -1 58.3557 71)" fill="black"/>
<rect width="5" height="5" transform="matrix(1 0 0 -1 68.3557 85.5)" fill="black"/>
<rect width="5" height="5" transform="matrix(1 0 0 -1 63.3557 83.5)" fill="black"/>
<path d="M58.3557 86H62.3557C62.9079 86 63.3557 85.5523 63.3557 85V81H58.3557V86Z" fill="black"/>
<rect width="5" height="5" transform="matrix(1 0 0 -1 68.3557 75.5)" fill="black"/>
<rect width="5" height="5" transform="matrix(1 0 0 -1 63.3557 73.5)" fill="black"/>
<rect width="5" height="5" transform="matrix(1 0 0 -1 58.3557 76)" fill="black"/>
<rect width="5" height="5" transform="matrix(1 0 0 -1 68.3557 90.5)" fill="black"/>
<rect width="5" height="5" transform="matrix(1 0 0 -1 68.3557 80.5)" fill="black"/>
<rect width="5" height="5" transform="matrix(1 0 0 -1 63.3557 78.5)" fill="black"/>
<rect width="5" height="5" transform="matrix(1 0 0 -1 58.3557 81)" fill="black"/>
<path d="M68.3557 94.5C68.3557 95.0523 68.8034 95.5 69.3557 95.5H72.3557C72.9079 95.5 73.3557 95.0523 73.3557 94.5V90.5H68.3557V94.5Z" fill="black"/>
<path d="M76.3557 108H81.3557V112C81.3557 112.552 80.9079 113 80.3557 113H76.3557V108Z" fill="black"/>
<path d="M76.3557 8H81.3557V4C81.3557 3.44772 80.9079 3 80.3557 3H76.3557V8Z" fill="black"/>
<path d="M78.3557 103H83.3557V107C83.3557 107.552 82.9079 108 82.3557 108H78.3557V103Z" fill="black"/>
<rect x="78.3557" y="78" width="5" height="5" fill="black"/>
<rect x="78.3557" y="53" width="5" height="5" fill="black"/>
<rect x="78.3557" y="28" width="5" height="5" fill="black"/>
<rect x="49.3557" y="28" width="5" height="5" fill="black"/>
<rect x="78.3557" y="98" width="5" height="5" fill="black"/>
<rect x="78.3557" y="73" width="5" height="5" fill="black"/>
<rect x="78.3557" y="48" width="5" height="5" fill="black"/>
<rect x="78.3557" y="23" width="5" height="5" fill="black"/>
<rect x="49.3557" y="23" width="5" height="5" fill="black"/>
<rect x="78.3557" y="93" width="5" height="5" fill="black"/>
<rect x="78.3557" y="68" width="5" height="5" fill="black"/>
<rect x="78.3557" y="43" width="5" height="5" fill="black"/>
<rect x="49.3557" y="43" width="5" height="5" fill="black"/>
<rect x="49.3557" y="48" width="5" height="5" fill="black"/>
<rect x="78.3557" y="18" width="5" height="5" fill="black"/>
<rect x="49.3557" y="18" width="5" height="5" fill="black"/>
<rect x="78.3557" y="88" width="5" height="5" fill="black"/>
<rect x="78.3557" y="63" width="5" height="5" fill="black"/>
<rect x="78.3557" y="38" width="5" height="5" fill="black"/>
<rect x="49.3557" y="38" width="5" height="5" fill="black"/>
<rect x="78.3557" y="13" width="5" height="5" fill="black"/>
<rect x="49.3557" y="13" width="5" height="5" fill="black"/>
<rect x="78.3557" y="83" width="5" height="5" fill="black"/>
<rect x="78.3557" y="58" width="5" height="5" fill="black"/>
<rect x="78.3557" y="33" width="5" height="5" fill="black"/>
<rect x="49.3557" y="33" width="5" height="5" fill="black"/>
<path d="M78.3557 8H82.3557C82.9079 8 83.3557 8.44772 83.3557 9V13H78.3557V8Z" fill="black"/>
<path d="M49.3557 9C49.3557 8.44772 49.8034 8 50.3557 8H54.3557V13H49.3557V9Z" fill="black"/>
<path d="M56.3557 111H61.3557V116H57.3557C56.8034 116 56.3557 115.552 56.3557 115V111Z" fill="black"/>
<path d="M56.3557 5H61.3557V0H57.3557C56.8034 0 56.3557 0.447715 56.3557 1V5Z" fill="black"/>
<path d="M56.3557 18H61.3557V13H57.3557C56.8034 13 56.3557 13.4477 56.3557 14V18Z" fill="black"/>
<rect x="61.3557" y="111" width="5" height="5" fill="black"/>
<rect width="5" height="5" transform="matrix(1 0 0 -1 61.3557 5)" fill="black"/>
<path d="M61.3557 18H66.3557V14C66.3557 13.4477 65.9079 13 65.3557 13H61.3557V18Z" fill="black"/>
<rect x="66.3557" y="111" width="5" height="5" fill="black"/>
<rect width="5" height="5" transform="matrix(1 0 0 -1 66.3557 5)" fill="black"/>
<path d="M71.3557 111H76.3557V115C76.3557 115.552 75.9079 116 75.3557 116H71.3557V111Z" fill="black"/>
<path d="M71.3557 5H76.3557V1C76.3557 0.447715 75.9079 0 75.3557 0H71.3557V5Z" fill="black"/>
<rect x="36.3557" y="67.5" width="4" height="4" rx="0.75" fill="white"/>
</svg>
