<svg width="97" height="59" viewBox="0 0 97 59" fill="none" xmlns="http://www.w3.org/2000/svg">
<path d="M87.4241 36.0098C87.5422 36.0098 87.6635 36.0393 87.7542 36.1299C87.8448 36.2205 87.8752 36.3419 87.8752 36.46V41.9277H94.5608V36.46C94.5608 36.342 94.5905 36.2205 94.6809 36.1299C94.7716 36.0392 94.8938 36.0098 95.012 36.0098H95.9426C96.0608 36.0098 96.183 36.0392 96.2737 36.1299C96.3642 36.2205 96.3938 36.3419 96.3938 36.46V49.2285C96.3938 49.3467 96.3644 49.4689 96.2737 49.5596C96.183 49.6502 96.0607 49.6797 95.9426 49.6797H95.012C94.8938 49.6797 94.7716 49.6502 94.6809 49.5596C94.5902 49.4689 94.5608 49.3467 94.5608 49.2285V43.7607H87.8752V49.2285C87.8752 49.3467 87.8448 49.4689 87.7542 49.5596C87.6635 49.6499 87.542 49.6797 87.4241 49.6797H86.512C86.394 49.6797 86.2725 49.65 86.1819 49.5596C86.0912 49.4689 86.0618 49.3467 86.0618 49.2285V36.46C86.0618 36.3419 86.0913 36.2205 86.1819 36.1299C86.2725 36.0392 86.3939 36.0098 86.512 36.0098H87.4241Z" fill="black" stroke="black" stroke-width="0.357966"/>
<path d="M81.7917 36.0098C82.2043 36.0098 82.5921 36.0923 82.9529 36.2588H82.9519C83.3178 36.4088 83.6327 36.62 83.8943 36.8936L84.0906 37.1006C84.2767 37.3177 84.4315 37.5646 84.5544 37.8408L84.613 37.9775C84.7403 38.2991 84.8034 38.6411 84.8035 39.002V39.9141C84.8035 40.0321 84.7737 40.1535 84.6833 40.2441C84.5927 40.3348 84.4704 40.3652 84.3523 40.3652H83.4216C83.3035 40.3652 83.1813 40.3348 83.0906 40.2441C83.0002 40.1535 82.9705 40.032 82.9705 39.9141V39.0088L82.9617 38.8867C82.9283 38.6095 82.8134 38.3752 82.616 38.1777C82.3918 37.9536 82.1206 37.8419 81.7917 37.8418H77.4636C77.1373 37.8419 76.8588 37.9583 76.6199 38.1973C76.3958 38.4214 76.2849 38.6926 76.2849 39.0215V46.667C76.2849 46.9944 76.3954 47.2722 76.6199 47.5098C76.8577 47.7352 77.1356 47.8466 77.4636 47.8467H81.7917C82.1234 47.8466 82.3954 47.7397 82.6189 47.5273C82.8412 47.3036 82.9579 47.0329 82.9705 46.7061V45.7744C82.9705 45.6856 82.9988 45.6063 83.0466 45.5381L83.1003 45.4736C83.1823 45.3789 83.2922 45.3242 83.4216 45.3242H84.3523C84.4814 45.3242 84.5907 45.3793 84.6726 45.4736H84.6736C84.7539 45.5541 84.8034 45.6561 84.8035 45.7744V46.7061C84.8035 47.1188 84.7211 47.5072 84.5544 47.8682C84.3905 48.2234 84.171 48.5387 83.8972 48.8125C83.6345 49.0751 83.318 49.287 82.9509 49.4502L82.948 49.4521C82.5884 49.6043 82.2021 49.6796 81.7917 49.6797H77.4636C77.0532 49.6797 76.6611 49.6044 76.2898 49.4531L76.283 49.4492C75.9295 49.2861 75.615 49.0752 75.3416 48.8154L75.3357 48.8086C75.0749 48.534 74.8629 48.2123 74.7 47.8457L74.698 47.8408C74.5467 47.4695 74.4714 47.0775 74.4714 46.667V39.0215C74.4715 38.611 74.5468 38.225 74.699 37.8652L74.7 37.8623C74.8629 37.4957 75.0749 37.174 75.3357 36.8994L75.3386 36.8965C75.6128 36.6223 75.9286 36.409 76.2849 36.2578L76.4255 36.1992C76.756 36.0725 77.1025 36.0098 77.4636 36.0098H81.7917Z" fill="black" stroke="black" stroke-width="0.357966"/>
<path d="M72.7622 36.0098C72.8804 36.0098 73.0026 36.0392 73.0933 36.1299C73.1838 36.2205 73.2133 36.3419 73.2134 36.46V37.3916C73.2134 37.5096 73.1837 37.631 73.0933 37.7217C73.0026 37.8124 72.8804 37.8418 72.7622 37.8418H68.9634V49.2285C68.9634 49.358 68.9077 49.4669 68.813 49.5488L68.814 49.5498C68.8105 49.5532 68.8058 49.5553 68.8022 49.5586C68.801 49.5596 68.8006 49.5615 68.7993 49.5625L68.7983 49.5615C68.7202 49.6338 68.6247 49.6796 68.5132 49.6797H67.5815C67.4636 49.6797 67.3421 49.65 67.2515 49.5596C67.1608 49.4689 67.1304 49.3467 67.1304 49.2285V37.8418H63.3315C63.2135 37.8418 63.0921 37.8123 63.0015 37.7217C62.9109 37.631 62.8813 37.5097 62.8813 37.3916V36.46C62.8814 36.3419 62.9108 36.2205 63.0015 36.1299C63.0921 36.0392 63.2135 36.0098 63.3315 36.0098H72.7622Z" fill="black" stroke="black" stroke-width="0.357966"/>
<path d="M58.7668 36.0098C58.8878 36.0098 58.998 36.0508 59.092 36.126L59.0911 36.127C59.183 36.1908 59.2597 36.2709 59.301 36.374L61.9993 43.127H61.9983C62.0297 43.2056 62.0506 43.299 62.0647 43.4023L62.0969 43.5664C62.1044 43.619 62.1086 43.6695 62.1086 43.7178V49.2285C62.1086 49.3467 62.0792 49.4689 61.9885 49.5596C61.8979 49.6502 61.7756 49.6797 61.6575 49.6797H60.7463C60.6282 49.6797 60.506 49.6502 60.4153 49.5596C60.3246 49.4689 60.2952 49.3467 60.2952 49.2285V45.8174H53.6086V49.2285C53.6086 49.3467 53.5792 49.4689 53.4885 49.5596C53.3979 49.65 53.2764 49.6797 53.1584 49.6797H52.2268C52.1088 49.6797 51.9873 49.65 51.8967 49.5596C51.806 49.4689 51.7766 49.3467 51.7766 49.2285V43.7178C51.7766 43.6307 51.7836 43.5324 51.7971 43.4238L51.7981 43.4131L51.801 43.4023C51.8279 43.2948 51.856 43.2019 51.886 43.127L54.5833 36.374C54.6265 36.2661 54.7082 36.1823 54.8059 36.1172C54.9005 36.0542 55.006 36.0098 55.1184 36.0098H58.7668ZM53.6086 43.752V44.0049H60.2952V43.752L57.927 37.8418H55.9768L53.6086 43.752Z" fill="black" stroke="black" stroke-width="0.357966"/>
<path d="M47.0217 36.0098C47.4343 36.0098 47.822 36.0923 48.1829 36.2588H48.1819C48.5477 36.4088 48.8627 36.62 49.1243 36.8936L49.3206 37.1006C49.5067 37.3177 49.6614 37.5646 49.7844 37.8408L49.843 37.9775C49.9703 38.2991 50.0334 38.6411 50.0334 39.002V39.9141C50.0334 40.0321 50.0037 40.1535 49.9133 40.2441C49.8226 40.3348 49.7004 40.3652 49.5823 40.3652H48.6516C48.5335 40.3652 48.4112 40.3348 48.3206 40.2441C48.2302 40.1535 48.2004 40.032 48.2004 39.9141V39.0088L48.1917 38.8867C48.1583 38.6095 48.0434 38.3752 47.8459 38.1777C47.6218 37.9536 47.3506 37.8419 47.0217 37.8418H42.6936C42.3673 37.8419 42.0888 37.9583 41.8499 38.1973C41.6257 38.4214 41.5149 38.6926 41.5149 39.0215V46.667C41.5149 46.9944 41.6254 47.2722 41.8499 47.5098C42.0877 47.7352 42.3656 47.8466 42.6936 47.8467H47.0217C47.3534 47.8466 47.6254 47.7397 47.8489 47.5273C48.0712 47.3036 48.1878 47.0329 48.2004 46.7061V45.7744C48.2005 45.6857 48.2288 45.6063 48.2766 45.5381L48.3303 45.4736C48.4123 45.3789 48.5222 45.3242 48.6516 45.3242H49.5823C49.7114 45.3242 49.8207 45.3793 49.9026 45.4736H49.9036C49.9839 45.5541 50.0334 45.6561 50.0334 45.7744V46.7061C50.0334 47.1188 49.951 47.5072 49.7844 47.8682C49.6205 48.2234 49.401 48.5387 49.1272 48.8125C48.8645 49.0751 48.548 49.287 48.1809 49.4502L48.178 49.4521C47.8183 49.6043 47.4321 49.6796 47.0217 49.6797H42.6936C42.2831 49.6797 41.8911 49.6044 41.5198 49.4531L41.5129 49.4492C41.1595 49.2861 40.845 49.0752 40.5715 48.8154L40.5657 48.8086C40.3048 48.534 40.0929 48.2123 39.9299 47.8457L39.928 47.8408C39.7767 47.4695 39.7014 47.0775 39.7014 46.667V39.0215C39.7014 38.611 39.7768 38.225 39.929 37.8652L39.9299 37.8623C40.0929 37.4957 40.3048 37.174 40.5657 36.8994L40.5686 36.8965C40.8428 36.6223 41.1586 36.409 41.5149 36.2578L41.6555 36.1992C41.986 36.0725 42.3325 36.0098 42.6936 36.0098H47.0217Z" fill="black" stroke="black" stroke-width="0.357966"/>
<path d="M85.8276 18.8643C85.9569 18.8643 86.0651 18.9201 86.147 19.0146L86.1479 19.0137C86.1496 19.0153 86.1503 19.0179 86.1519 19.0195C86.1546 19.0228 86.1589 19.025 86.1616 19.0283L86.1606 19.0293C86.2329 19.1074 86.2778 19.203 86.2778 19.3145V21.7988C86.2779 21.83 86.2881 21.8824 86.3218 21.9609C86.3539 22.0359 86.3902 22.0966 86.4282 22.1455L89.6304 25.2734L92.8237 22.1367C92.8657 22.0944 92.8959 22.0441 92.9136 21.9824L92.9165 21.9717L92.9204 21.9609C92.9541 21.8824 92.9643 21.83 92.9644 21.7988V19.3145C92.9644 19.1961 93.0139 19.0941 93.0942 19.0137V19.0146C93.1762 18.9196 93.2859 18.8643 93.4155 18.8643H94.3462C94.4756 18.8643 94.5846 18.9199 94.6665 19.0146L94.6675 19.0137C94.7478 19.0941 94.7973 19.1961 94.7974 19.3145V22.3809C94.7973 22.4882 94.7699 22.5962 94.7241 22.7031L94.7202 22.7129C94.6761 22.8012 94.6239 22.8831 94.564 22.958L94.5503 22.9736L90.5474 26.957V32.083C90.5474 32.2124 90.4917 32.3214 90.397 32.4033L90.3979 32.4043C90.3945 32.4077 90.3897 32.4098 90.3862 32.4131C90.385 32.4141 90.3845 32.416 90.3833 32.417L90.3823 32.416C90.3042 32.4883 90.2087 32.5341 90.0972 32.5342H89.1655C89.0476 32.5342 88.9261 32.5044 88.8354 32.4141C88.7448 32.3234 88.7144 32.2012 88.7144 32.083V26.9561L84.6929 22.9736L84.6851 22.9658L84.6792 22.958C84.6192 22.883 84.5671 22.8012 84.5229 22.7129L84.5181 22.7031C84.4723 22.5962 84.4458 22.4881 84.4458 22.3809V19.3145C84.4459 19.196 84.4953 19.0941 84.5757 19.0137C84.6598 18.9295 84.7672 18.8643 84.896 18.8643H85.8276Z" fill="black" stroke="black" stroke-width="0.357966"/>
<path d="M76.3582 18.8643C76.4763 18.8643 76.5976 18.8938 76.6882 18.9844C76.7789 19.075 76.8083 19.1964 76.8083 19.3145V30.7012H84.2175C84.3465 30.7012 84.4551 30.7565 84.5369 30.8506H84.5378C84.5393 30.852 84.5403 30.854 84.5417 30.8555C84.5447 30.8589 84.5487 30.8617 84.5515 30.8652H84.5505C84.623 30.9434 84.6676 31.0397 84.6677 31.1514V32.083C84.6677 32.2012 84.6383 32.3234 84.5476 32.4141C84.457 32.5045 84.3355 32.5341 84.2175 32.5342H75.4265C75.311 32.5341 75.2082 32.4869 75.1208 32.417L75.113 32.4111L75.1062 32.4043C75.0187 32.3168 74.9763 32.2049 74.9763 32.083V19.3145C74.9764 19.1926 75.0187 19.0816 75.1062 18.9941L75.113 18.9873L75.1208 18.9805C75.2081 18.9107 75.3111 18.8643 75.4265 18.8643H76.3582Z" fill="black" stroke="black" stroke-width="0.357966"/>
<path d="M72.4912 18.8643C72.6093 18.8643 72.7306 18.8938 72.8213 18.9844C72.9119 19.075 72.9414 19.1964 72.9414 19.3145V20.2461C72.9414 20.3642 72.912 20.4855 72.8213 20.5762C72.7306 20.6668 72.6093 20.6963 72.4912 20.6963H68.9639V30.7012H72.4912C72.6202 30.7012 72.7287 30.7565 72.8105 30.8506H72.8115C72.8129 30.852 72.814 30.854 72.8154 30.8555C72.8184 30.859 72.8223 30.8616 72.8252 30.8652H72.8242C72.8967 30.9434 72.9413 31.0397 72.9414 31.1514V32.083C72.9414 32.2012 72.912 32.3234 72.8213 32.4141C72.7306 32.5045 72.6092 32.5342 72.4912 32.5342H63.584C63.466 32.5341 63.3445 32.5045 63.2539 32.4141C63.1632 32.3234 63.1338 32.2012 63.1338 32.083V31.1514C63.1339 31.0397 63.1785 30.9434 63.251 30.8652C63.2537 30.8618 63.2569 30.8588 63.2598 30.8555C63.2612 30.854 63.2622 30.852 63.2637 30.8506H63.2646C63.3465 30.7565 63.455 30.7012 63.584 30.7012H67.1309V20.6963H63.584C63.4659 20.6963 63.3445 20.6668 63.2539 20.5762C63.1633 20.4855 63.1338 20.3642 63.1338 20.2461V19.3145C63.1338 19.1964 63.1633 19.075 63.2539 18.9844C63.3445 18.8937 63.4659 18.8643 63.584 18.8643H72.4912Z" fill="black" stroke="black" stroke-width="0.357966"/>
<path d="M58.6921 18.8643C58.8131 18.8643 58.9233 18.9052 59.0173 18.9805L59.0164 18.9814C59.1083 19.0453 59.185 19.1254 59.2263 19.2285L61.9246 25.9814H61.9236C61.955 26.06 61.9759 26.1535 61.99 26.2568L62.0222 26.4209C62.0297 26.4735 62.0339 26.524 62.0339 26.5723V32.083C62.0339 32.2012 62.0045 32.3234 61.9138 32.4141C61.8231 32.5047 61.7009 32.5342 61.5828 32.5342H60.6716C60.5535 32.5342 60.4313 32.5047 60.3406 32.4141C60.2499 32.3234 60.2205 32.2012 60.2205 32.083V28.6719H53.5339V32.083C53.5339 32.2012 53.5045 32.3234 53.4138 32.4141C53.3232 32.5045 53.2017 32.5342 53.0837 32.5342H52.1521C52.0341 32.5341 51.9126 32.5045 51.822 32.4141C51.7313 32.3234 51.7019 32.2012 51.7019 32.083V26.5723C51.7019 26.4852 51.7088 26.3869 51.7224 26.2783L51.7234 26.2676L51.7263 26.2568C51.7532 26.1493 51.7813 26.0564 51.8113 25.9814L54.5085 19.2285C54.5518 19.1206 54.6335 19.0368 54.7312 18.9717C54.8258 18.9087 54.9313 18.8643 55.0437 18.8643H58.6921ZM53.5339 26.6064V26.8594H60.2205V26.6064L57.8523 20.6963H55.9021L53.5339 26.6064Z" fill="black" stroke="black" stroke-width="0.357966"/>
<path d="M47.021 18.8643C47.4337 18.8643 47.8221 18.9467 48.1831 19.1133H48.1821C48.55 19.2641 48.8725 19.4765 49.147 19.751C49.4212 20.0253 49.6339 20.3472 49.7847 20.7148L49.8423 20.8506C49.9699 21.1724 50.0337 21.5147 50.0337 21.876V29.5215C50.0337 29.9341 49.9511 30.3278 49.7856 30.7002C49.6347 31.0689 49.4219 31.392 49.147 31.667L49.1431 31.6699C48.8687 31.9305 48.5475 32.1418 48.1812 32.3047L48.1782 32.3066C47.8184 32.4589 47.4315 32.5342 47.021 32.5342H40.1323C40.0168 32.5341 39.914 32.4869 39.8267 32.417L39.8188 32.4111L39.812 32.4043C39.7245 32.3168 39.6821 32.2049 39.6821 32.083V19.3145C39.6822 19.196 39.7316 19.0941 39.812 19.0137C39.8962 18.9295 40.0035 18.8643 40.1323 18.8643H47.021ZM41.5142 30.7012H47.021C47.35 30.7012 47.621 30.5894 47.8452 30.3652C48.0842 30.1262 48.2007 29.8479 48.2007 29.5215V21.876C48.2006 21.5499 48.0852 21.2796 47.8491 21.0547L47.8423 21.0488C47.6174 20.8127 47.3471 20.6963 47.021 20.6963H41.5142V30.7012Z" fill="black" stroke="black" stroke-width="0.357966"/>
<path d="M57.5754 7.94287C57.6364 7.94292 57.6962 7.95813 57.7405 8.00244C57.7848 8.04676 57.8 8.10656 57.8 8.16748V8.67041C57.8 8.73142 57.7849 8.79205 57.7405 8.83643C57.6962 8.88058 57.6363 8.89595 57.5754 8.896H53.4094V11.1382H57.009C57.0728 11.1382 57.1243 11.1711 57.1624 11.2173C57.2048 11.2547 57.2346 11.3033 57.2346 11.3638V11.8667C57.2346 11.9312 57.2063 11.9848 57.1584 12.0259L57.1594 12.0269C57.1189 12.0674 57.0676 12.0923 57.009 12.0923H53.4094V14.3345H57.5754C57.6396 14.3345 57.6936 14.3622 57.7346 14.4097C57.7752 14.4502 57.8 14.5015 57.8 14.5601V15.063C57.8 15.124 57.7849 15.1846 57.7405 15.229C57.6962 15.2731 57.6362 15.2885 57.5754 15.2886H52.6917C52.6309 15.2885 52.5709 15.273 52.5266 15.229C52.4822 15.1846 52.467 15.124 52.467 15.063V8.16748C52.4671 8.10655 52.4823 8.04677 52.5266 8.00244C52.5709 7.95812 52.6307 7.94291 52.6917 7.94287H57.5754Z" fill="black" stroke="black" stroke-width="0.1571"/>
<path d="M46.7788 7.94287C46.8397 7.94294 46.8996 7.95817 46.9438 8.00244C46.9881 8.04676 47.0034 8.10659 47.0034 8.16748V11.1382H50.6509V8.16748C50.6509 8.10655 50.6661 8.04676 50.7104 8.00244C50.7548 7.95813 50.8146 7.94291 50.8755 7.94287H51.3784C51.4394 7.94287 51.5001 7.95806 51.5444 8.00244C51.5886 8.04674 51.604 8.10664 51.604 8.16748V15.063C51.604 15.124 51.5888 15.1846 51.5444 15.229C51.5001 15.2733 51.4394 15.2886 51.3784 15.2886H50.8755C50.8147 15.2885 50.7547 15.273 50.7104 15.229C50.6661 15.1846 50.6509 15.124 50.6509 15.063V12.0923H47.0034V15.063C47.0034 15.124 46.9882 15.1846 46.9438 15.229C46.8996 15.2731 46.8396 15.2885 46.7788 15.2886H46.2856C46.2249 15.2885 46.1649 15.273 46.1206 15.229C46.0762 15.1846 46.061 15.124 46.061 15.063V8.16748C46.0611 8.10655 46.0763 8.04676 46.1206 8.00244C46.1649 7.95812 46.2247 7.94291 46.2856 7.94287H46.7788Z" fill="black" stroke="black" stroke-width="0.1571"/>
<path d="M45.1194 7.94287C45.1804 7.94287 45.241 7.95806 45.2854 8.00244C45.3296 8.04674 45.3449 8.10664 45.345 8.16748V8.67041C45.345 8.73142 45.3298 8.79205 45.2854 8.83643C45.241 8.88079 45.1804 8.896 45.1194 8.896H43.05V15.063C43.05 15.1275 43.0218 15.181 42.9739 15.2222L42.9749 15.2231C42.9343 15.2637 42.883 15.2886 42.8245 15.2886H42.3215C42.2608 15.2885 42.2008 15.273 42.1565 15.229C42.1121 15.1846 42.0969 15.124 42.0969 15.063V8.896H40.0266C39.9658 8.89596 39.9059 8.88057 39.8616 8.83643C39.8172 8.79205 39.802 8.73142 39.802 8.67041V8.16748C39.802 8.10655 39.8172 8.04676 39.8616 8.00244C39.9059 7.95812 39.9657 7.94291 40.0266 7.94287H45.1194Z" fill="black" stroke="black" stroke-width="0.1571"/>
<path d="M0 33.05C0 32.7713 0.225903 32.5454 0.504569 32.5454H2.52284V35.0683H0V33.05Z" fill="black"/>
<rect width="2.52284" height="2.52284" transform="matrix(-1 0 0 1 32.2925 33.3018)" fill="black"/>
<path d="M32.2925 32.0405H30.2742C29.9955 32.0405 29.7696 32.2664 29.7696 32.5451V34.5634H32.2925V32.0405Z" fill="black"/>
<path d="M34.8152 31.2834C34.8152 31.0047 34.5893 30.7788 34.3106 30.7788H32.7969C32.5182 30.7788 32.2923 31.0047 32.2923 31.2834V33.3017H34.8152V31.2834Z" fill="black"/>
<path d="M0 35.0679H2.52284V37.5907H0.504569C0.225904 37.5907 0 37.3648 0 37.0861V35.0679Z" fill="black"/>
<rect width="2.52284" height="2.52284" transform="matrix(-1 0 0 1 29.7695 33.3018)" fill="black"/>
<rect width="2.52284" height="2.52284" transform="matrix(-1 0 0 1 29.7695 35.8252)" fill="black"/>
<rect width="2.52284" height="2.52284" transform="matrix(-1 0 0 1 32.2925 35.8252)" fill="black"/>
<rect width="2.52284" height="2.52284" transform="matrix(-1 0 0 1 32.2925 34.5635)" fill="black"/>
<rect width="2.52284" height="2.52284" transform="matrix(-1 0 0 1 34.8152 33.3018)" fill="black"/>
<path d="M32.2925 37.0859H29.7696V39.1042C29.7696 39.3829 29.9955 39.6088 30.2742 39.6088H32.2925V37.0859Z" fill="black"/>
<rect width="2.52284" height="2.52284" transform="matrix(-1 0 0 1 34.8152 35.8252)" fill="black"/>
<path d="M34.8152 38.3477H32.2923V40.3659C32.2923 40.6446 32.5182 40.8705 32.7969 40.8705H34.3106C34.5893 40.8705 34.8152 40.6446 34.8152 40.3659V38.3477Z" fill="black"/>
<path d="M2.52295 31.7883C2.52295 31.5096 2.74885 31.2837 3.02752 31.2837H5.04579V33.8065H2.52295V31.7883Z" fill="black"/>
<rect width="2.52284" height="2.52284" transform="matrix(-1 0 0 1 27.2466 31.7881)" fill="black"/>
<rect x="2.52295" y="33.8066" width="2.52284" height="2.52284" fill="black"/>
<rect width="2.52284" height="2.52284" transform="matrix(-1 0 0 1 27.2466 34.311)" fill="black"/>
<path d="M2.52295 36.3296H5.04579V38.8524H3.02752C2.74885 38.8524 2.52295 38.6265 2.52295 38.3479V36.3296Z" fill="black"/>
<rect width="2.52284" height="2.52284" transform="matrix(-1 0 0 1 27.2466 36.834)" fill="black"/>
<path d="M5.04565 37.5908H7.5685V40.1137H5.55022C5.27156 40.1137 5.04565 39.8878 5.04565 39.6091V37.5908Z" fill="black"/>
<rect width="2.52284" height="2.52284" transform="matrix(-1 0 0 1 24.7239 37.0859)" fill="black"/>
<rect x="5.04565" y="35.0679" width="2.52284" height="2.52284" fill="black"/>
<rect width="2.52284" height="2.52284" transform="matrix(-1 0 0 1 24.7239 34.5635)" fill="black"/>
<rect x="5.04565" y="32.5454" width="2.52284" height="2.52284" fill="black"/>
<rect width="2.52284" height="2.52284" transform="matrix(-1 0 0 1 24.7239 32.0405)" fill="black"/>
<path d="M5.04565 30.527C5.04565 30.2484 5.27156 30.0225 5.55022 30.0225H7.5685V32.5453H5.04565V30.527Z" fill="black"/>
<path d="M7.5686 29.2653C7.5686 28.9866 7.79451 28.7607 8.07317 28.7607H10.0914V31.2836H7.5686V29.2653Z" fill="black"/>
<rect width="2.52284" height="2.52284" transform="matrix(-1 0 0 1 22.2012 28.7607)" fill="black"/>
<rect x="10.0916" y="28.7607" width="2.52284" height="2.52284" fill="black"/>
<rect x="10.0916" y="26.7427" width="2.52284" height="2.52284" fill="black"/>
<rect x="7.5686" y="31.2837" width="2.52284" height="2.52284" fill="black"/>
<rect width="2.52284" height="2.52284" transform="matrix(-1 0 0 1 22.2012 31.2837)" fill="black"/>
<rect x="10.0916" y="31.2837" width="2.52284" height="2.52284" fill="black"/>
<rect x="7.5686" y="33.8066" width="2.52284" height="2.52284" fill="black"/>
<rect width="2.52284" height="2.52284" transform="matrix(-1 0 0 1 22.2012 33.8066)" fill="black"/>
<rect x="10.0916" y="33.8066" width="2.52284" height="2.52284" fill="black"/>
<rect x="7.5686" y="36.3296" width="2.52284" height="2.52284" fill="black"/>
<rect width="2.52284" height="2.52284" transform="matrix(-1 0 0 1 22.2012 36.3296)" fill="black"/>
<rect x="10.0916" y="36.3296" width="2.52284" height="2.52284" fill="black"/>
<path d="M7.5686 38.8525H10.0914V41.3754H8.07317C7.79451 41.3754 7.5686 41.1495 7.5686 40.8708V38.8525Z" fill="black"/>
<rect width="2.52284" height="2.52284" transform="matrix(-1 0 0 1 22.2012 38.8525)" fill="black"/>
<rect x="10.0916" y="38.8525" width="2.52284" height="2.52284" fill="black"/>
<rect x="10.0916" y="40.3657" width="2.52284" height="2.52284" fill="black"/>
<rect x="10.0916" y="41.8799" width="2.52284" height="2.52284" fill="black"/>
<rect x="10.0916" y="44.4028" width="2.52284" height="2.52284" fill="black"/>
<rect x="10.0916" y="46.9253" width="2.52284" height="2.52284" fill="black"/>
<rect x="10.0916" y="49.4482" width="2.52284" height="2.52284" fill="black"/>
<path d="M10.0916 51.9712H12.6144V54.494H10.5961C10.3175 54.494 10.0916 54.2681 10.0916 53.9895V51.9712Z" fill="black"/>
<path d="M11.1006 54.4937H13.6234V57.0165H11.6052C11.3265 57.0165 11.1006 56.7906 11.1006 56.5119V54.4937Z" fill="black"/>
<path d="M11.1006 4.0376H13.6234V1.51475H11.6052C11.3265 1.51475 11.1006 1.74066 11.1006 2.01932V4.0376Z" fill="black"/>
<rect width="2.52284" height="2.52284" transform="matrix(1 0 0 -1 11.1006 10.3438)" fill="black"/>
<path d="M18.6689 10.3438H21.1918V8.32547C21.1918 8.04681 20.9659 7.82091 20.6872 7.82091H18.6689V10.3438Z" fill="black"/>
<path d="M19.6782 12.8672H22.2011V10.8489C22.2011 10.5702 21.9752 10.3443 21.6965 10.3443H19.6782V12.8672Z" fill="black"/>
<rect width="2.52284" height="2.52284" transform="matrix(1 0 0 -1 19.6782 15.3901)" fill="black"/>
<rect width="2.52284" height="2.52284" transform="matrix(1 0 0 -1 19.6782 17.9126)" fill="black"/>
<rect width="2.52284" height="2.52284" transform="matrix(1 0 0 -1 19.6782 20.4355)" fill="black"/>
<rect width="2.52284" height="2.52284" transform="matrix(1 0 0 -1 19.6782 22.9585)" fill="black"/>
<rect width="2.52284" height="2.52284" transform="matrix(1 0 0 -1 19.6782 25.481)" fill="black"/>
<rect width="2.52284" height="2.52284" transform="matrix(1 0 0 -1 19.6782 28.0039)" fill="black"/>
<rect width="2.52284" height="2.52284" transform="matrix(1 0 0 -1 19.6782 30.5273)" fill="black"/>
<path d="M14.6326 30.7788H17.1554V28.7605C17.1554 28.4819 16.9295 28.256 16.6508 28.256H14.6326V30.7788Z" fill="black"/>
<rect width="2.52284" height="2.52284" transform="matrix(1 0 0 -1 19.6782 33.0498)" fill="black"/>
<rect width="2.52284" height="2.52284" transform="matrix(1 0 0 -1 17.1555 32.0405)" fill="black"/>
<rect width="2.52284" height="2.52284" transform="matrix(1 0 0 -1 14.6326 33.3018)" fill="black"/>
<rect width="2.52284" height="2.52284" transform="matrix(1 0 0 -1 19.6782 35.5728)" fill="black"/>
<rect width="2.52284" height="2.52284" transform="matrix(1 0 0 -1 17.1555 34.5635)" fill="black"/>
<rect width="2.52284" height="2.52284" transform="matrix(1 0 0 -1 14.6326 35.8252)" fill="black"/>
<rect width="2.52284" height="2.52284" transform="matrix(1 0 0 -1 19.6782 43.1406)" fill="black"/>
<rect width="2.52284" height="2.52284" transform="matrix(1 0 0 -1 17.1555 42.1323)" fill="black"/>
<path d="M14.6326 43.3936H16.6508C16.9295 43.3936 17.1554 43.1677 17.1554 42.889V40.8707H14.6326V43.3936Z" fill="black"/>
<rect width="2.52284" height="2.52284" transform="matrix(1 0 0 -1 19.6782 38.0957)" fill="black"/>
<rect width="2.52284" height="2.52284" transform="matrix(1 0 0 -1 17.1555 37.0859)" fill="black"/>
<rect width="2.52284" height="2.52284" transform="matrix(1 0 0 -1 14.6326 38.3477)" fill="black"/>
<rect width="2.52284" height="2.52284" transform="matrix(1 0 0 -1 19.6782 45.6641)" fill="black"/>
<rect width="2.52284" height="2.52284" transform="matrix(1 0 0 -1 19.6782 40.6182)" fill="black"/>
<rect width="2.52284" height="2.52284" transform="matrix(1 0 0 -1 17.1555 39.6089)" fill="black"/>
<rect width="2.52284" height="2.52284" transform="matrix(1 0 0 -1 14.6326 40.8706)" fill="black"/>
<path d="M19.6782 47.6824C19.6782 47.9611 19.9041 48.187 20.1828 48.187H21.6965C21.9752 48.187 22.2011 47.9611 22.2011 47.6824V45.6642H19.6782V47.6824Z" fill="black"/>
<path d="M23.7146 54.4937H26.2374V56.5119C26.2374 56.7906 26.0115 57.0165 25.7329 57.0165H23.7146V54.4937Z" fill="black"/>
<path d="M23.7146 4.0376H26.2374V2.01932C26.2374 1.74066 26.0115 1.51475 25.7329 1.51475H23.7146V4.0376Z" fill="black"/>
<path d="M24.7239 51.9712H27.2467V53.9895C27.2467 54.2681 27.0208 54.494 26.7422 54.494H24.7239V51.9712Z" fill="black"/>
<rect x="24.7239" y="39.3569" width="2.52284" height="2.52284" fill="black"/>
<rect x="24.7239" y="26.7427" width="2.52284" height="2.52284" fill="black"/>
<rect x="24.7239" y="14.1284" width="2.52284" height="2.52284" fill="black"/>
<rect x="10.0916" y="14.1284" width="2.52284" height="2.52284" fill="black"/>
<rect x="24.7239" y="49.4482" width="2.52284" height="2.52284" fill="black"/>
<rect x="24.7239" y="36.834" width="2.52284" height="2.52284" fill="black"/>
<rect x="24.7239" y="24.2197" width="2.52284" height="2.52284" fill="black"/>
<rect x="24.7239" y="11.606" width="2.52284" height="2.52284" fill="black"/>
<rect x="10.0916" y="11.606" width="2.52284" height="2.52284" fill="black"/>
<rect x="24.7239" y="46.9253" width="2.52284" height="2.52284" fill="black"/>
<rect x="24.7239" y="34.311" width="2.52284" height="2.52284" fill="black"/>
<rect x="24.7239" y="21.6973" width="2.52284" height="2.52284" fill="black"/>
<rect x="10.0916" y="21.6973" width="2.52284" height="2.52284" fill="black"/>
<rect x="10.0916" y="24.2197" width="2.52284" height="2.52284" fill="black"/>
<rect x="24.7239" y="9.08252" width="2.52284" height="2.52284" fill="black"/>
<rect x="10.0916" y="9.08252" width="2.52284" height="2.52284" fill="black"/>
<rect x="24.7239" y="44.4028" width="2.52284" height="2.52284" fill="black"/>
<rect x="24.7239" y="31.7881" width="2.52284" height="2.52284" fill="black"/>
<rect x="24.7239" y="19.1743" width="2.52284" height="2.52284" fill="black"/>
<rect x="10.0916" y="19.1743" width="2.52284" height="2.52284" fill="black"/>
<rect x="24.7239" y="6.56006" width="2.52284" height="2.52284" fill="black"/>
<rect x="10.0916" y="6.56006" width="2.52284" height="2.52284" fill="black"/>
<rect x="24.7239" y="41.8799" width="2.52284" height="2.52284" fill="black"/>
<rect x="24.7239" y="29.2656" width="2.52284" height="2.52284" fill="black"/>
<rect x="24.7239" y="16.6509" width="2.52284" height="2.52284" fill="black"/>
<rect x="10.0916" y="16.6509" width="2.52284" height="2.52284" fill="black"/>
<path d="M24.7239 4.0376H26.7422C27.0208 4.0376 27.2467 4.2635 27.2467 4.54217V6.56044H24.7239V4.0376Z" fill="black"/>
<path d="M10.0916 4.54217C10.0916 4.2635 10.3175 4.0376 10.5961 4.0376H12.6144V6.56044H10.0916V4.54217Z" fill="black"/>
<path d="M13.6235 56.0078H16.1464V58.5307H14.1281C13.8494 58.5307 13.6235 58.3048 13.6235 58.0261V56.0078Z" fill="black"/>
<path d="M13.6235 2.52295H16.1464V0.000104547H14.1281C13.8494 0.000104547 13.6235 0.226008 13.6235 0.504673V2.52295Z" fill="black"/>
<path d="M13.6235 9.08252H16.1464V6.55967H14.1281C13.8494 6.55967 13.6235 6.78558 13.6235 7.06424V9.08252Z" fill="black"/>
<rect x="16.146" y="56.0078" width="2.52284" height="2.52284" fill="black"/>
<rect width="2.52284" height="2.52284" transform="matrix(1 0 0 -1 16.146 2.52295)" fill="black"/>
<path d="M16.146 9.08252H18.6688V7.06424C18.6688 6.78558 18.4429 6.55967 18.1643 6.55967H16.146V9.08252Z" fill="black"/>
<rect x="18.6689" y="56.0078" width="2.52284" height="2.52284" fill="black"/>
<rect width="2.52284" height="2.52284" transform="matrix(1 0 0 -1 18.6689 2.52295)" fill="black"/>
<path d="M21.1919 56.0078H23.7147V58.0261C23.7147 58.3048 23.4888 58.5307 23.2102 58.5307H21.1919V56.0078Z" fill="black"/>
<path d="M21.1919 2.52295H23.7147V0.504674C23.7147 0.226008 23.4888 0.000104547 23.2102 0.000104547H21.1919V2.52295Z" fill="black"/>
<rect x="3.53198" y="34.0586" width="2.01828" height="2.01828" rx="0.378427" fill="white"/>
</svg>
