<svg width="54" height="54" viewBox="0 0 54 54" fill="none" xmlns="http://www.w3.org/2000/svg">
<g clip-path="url(#clip0_98_1781)">
<path d="M54.0001 20.5708H51.4182V28.2827H54.0001V20.5708Z" fill="#000001"/>
<path d="M51.418 28.2827H48.853V33.4296H51.418V28.2827Z" fill="#000001"/>
<path d="M51.4181 18.0059H46.2712V20.5709H51.4181V18.0059Z" fill="#000001"/>
<path d="M48.8531 33.4292H46.2712V35.9942H48.8531V33.4292Z" fill="#000001"/>
<path d="M46.2713 48.853H43.7063V51.4349H46.2713V48.853Z" fill="#000001"/>
<path d="M43.7064 23.1359H46.2714V20.5709H43.7064V18.0059H41.1414V38.5765H46.2714V35.9946H43.7064V23.1359Z" fill="#000001"/>
<path d="M43.7062 51.4351H2.56494V54.0001H43.7062V51.4351Z" fill="#000001"/>
<path d="M41.1412 38.5762H38.5593V43.723H41.1412V38.5762Z" fill="#000001"/>
<path d="M35.9943 46.2881H10.2768V43.7231H7.71182V46.2881H2.56494V48.8531H43.7062V46.2881H38.5593V43.7231H35.9943V46.2881Z" fill="#000001"/>
<path d="M33.4293 7.71191H30.8474V10.2938H33.4293V7.71191Z" fill="#000001"/>
<path d="M30.8475 10.2939H28.2825V12.8589H30.8475V10.2939Z" fill="#000001"/>
<path d="M30.8475 5.14697H28.2825V7.71197H30.8475V5.14697Z" fill="#000001"/>
<path d="M30.8475 0H28.2825V2.565H30.8475V0Z" fill="#000001"/>
<path d="M28.2826 2.56494H25.7007V5.14682H28.2826V2.56494Z" fill="#000001"/>
<path d="M23.1356 7.71191H20.5706V10.2938H23.1356V7.71191Z" fill="#000001"/>
<path d="M20.5706 10.2939H17.9888V12.8589H20.5706V10.2939Z" fill="#000001"/>
<path d="M20.5706 5.14697H17.9888V7.71197H20.5706V5.14697Z" fill="#000001"/>
<path d="M20.5706 0H17.9888V2.565H20.5706V0Z" fill="#000001"/>
<path d="M17.9888 2.56494H15.4238V5.14682H17.9888V2.56494Z" fill="#000001"/>
<path d="M12.8418 18.0057V25.7176H10.2768V33.4295H12.8418V35.9945H17.9886V33.4295H20.5705V25.7176H17.9886V30.8645H15.4236V25.7176H17.9886V23.1357H15.4236V18.0057H41.1411V15.4238H5.12988V18.0057H12.8418Z" fill="#000001"/>
<path d="M7.71176 38.5762H5.12988V43.723H7.71176V38.5762Z" fill="#000001"/>
<path d="M5.12994 18.0059H2.56494V38.5765H5.12994V18.0059Z" fill="#000001"/>
<path d="M2.565 48.853H0V51.4349H2.565V48.853Z" fill="#000001"/>
</g>
<defs>
<clipPath id="clip0_98_1781">
<rect width="54" height="54" fill="white"/>
</clipPath>
</defs>
</svg>
